HIERARCHY
ROOT Hips
{
	OFFSET 0.000000 0.000000 0.000000 
	CHANNELS 6 Xposition Yposition Zposition Zrotation Yrotation Xrotation
	JOINT LeftUpLeg
	{
		OFFSET 1.363060 -1.794630 0.839290 
		CHANNELS 3 Zrotation Yrotation Xrotation
		JOINT LeftLeg
		{
			OFFSET 2.448110 -6.726130 0.000000 
			CHANNELS 3 Zrotation Yrotation Xrotation
			JOINT LeftFoot
			{
				OFFSET 2.562200 -7.039590 0.000000 
				CHANNELS 3 Zrotation Yrotation Xrotation
				JOINT LeftToeBase
				{
					OFFSET 0.157640 -0.433110 2.322550 
					CHANNELS 3 Zrotation Yrotation Xrotation
					End Site
					{
						OFFSET 0.000000 0.000000 0.000000 
					}
				}
			}
		}
	}
	JOINT RightUpLeg
	{
		OFFSET -1.305520 -1.794630 0.839290 
		CHANNELS 3 Zrotation Yrotation Xrotation
		JOINT RightLeg
		{
			OFFSET -2.542530 -6.985550 0.000000 
			CHANNELS 3 Zrotation Yrotation Xrotation
			JOINT RightFoot
			{
				OFFSET -2.568260 -7.056230 0.000000 
				CHANNELS 3 Zrotation Yrotation Xrotation
				JOINT RightToeBase
				{
					OFFSET -0.164730 -0.452590 2.363150 
					CHANNELS 3 Zrotation Yrotation Xrotation
					End Site
					{
						OFFSET 0.000000 0.000000 0.000000 
					}
				}
			}
		}
	}
	JOINT Spine
	{
		OFFSET 0.028270 2.035590 -0.193380 
		CHANNELS 3 Zrotation Yrotation Xrotation
		JOINT Spine1
		{
			OFFSET 0.056720 2.048850 -0.042750 
			CHANNELS 3 Zrotation Yrotation Xrotation
			JOINT Neck1
			{
				OFFSET -0.054170 1.746240 0.172020 
				CHANNELS 3 Zrotation Yrotation Xrotation
				JOINT Head
				{
					OFFSET 0.104070 1.761360 -0.123970 
					CHANNELS 3 Zrotation Yrotation Xrotation
					End Site
					{
						OFFSET 0.000000 0.000000 0.000000 
					}
				}
			}
			JOINT LeftArm
			{
				OFFSET 3.362410 1.200890 -0.311210 
				CHANNELS 3 Zrotation Yrotation Xrotation
				JOINT LeftForeArm
				{
					OFFSET 4.983000 -0.000000 -0.000000 
					CHANNELS 3 Zrotation Yrotation Xrotation
					JOINT LeftHand
					{
						OFFSET 3.483560 -0.000000 -0.000000 
						CHANNELS 3 Zrotation Yrotation Xrotation
						JOINT LeftHandIndex1
						{
							OFFSET 0.715260 -0.000000 -0.000000 
							CHANNELS 3 Zrotation Yrotation Xrotation
							End Site
							{
								OFFSET 0.000000 0.000000 0.000000 
							}
						}
					}
				}
			}
			JOINT RightArm
			{
				OFFSET -3.136600 1.374050 -0.404650 
				CHANNELS 3 Zrotation Yrotation Xrotation
				JOINT RightForeArm
				{
					OFFSET -5.241900 -0.000000 -0.000000 
					CHANNELS 3 Zrotation Yrotation Xrotation
					JOINT RightHand
					{
						OFFSET -3.444170 -0.000000 -0.000000 
						CHANNELS 3 Zrotation Yrotation Xrotation
						JOINT RightHandIndex1
						{
							OFFSET -0.622530 -0.000000 -0.000000 
							CHANNELS 3 Zrotation Yrotation Xrotation
							End Site
							{
								OFFSET 0.000000 0.000000 0.000000 
							}
						}
					}
				}
			}
		}
	}
}
MOTION
Frames: 7
Frame Time: 0.041667
-9.305529 18.196982 -11.561036 -11.089169 23.783332 3.008130 -9.634641 4.244563 -36.087348 0.044477 11.926202 28.243583 -1.637026 9.133406 11.518835 0.793600 -5.686600 -15.877700 27.751698 -4.065132 -7.151812 1.538137 -8.577196 20.207134 -4.866169 12.476455 2.356078 -0.725800 5.443700 -15.178500 0.838832 6.471677 -3.186793 -2.199592 2.611302 -11.858699 8.464486 -21.598302 8.901193 20.721800 -12.158900 4.242000 -80.020235 17.849811 22.124619 25.015501 -31.836637 -9.536679 0.192802 -0.697152 -41.519437 -7.125000 0.000000 0.000000 62.781615 -0.823171 14.061616 -10.577601 20.755498 -3.299731 0.172375 0.690115 22.699807 7.125000 0.000000 0.000000 
-9.258389 18.195986 -11.449937 -11.155567 23.831125 3.026277 -9.421135 4.404121 -36.149819 -0.236125 11.441419 26.790749 -1.871614 9.846185 11.691145 0.766300 -5.590000 -15.599300 27.844702 -4.146331 -6.484067 1.608548 -8.328994 19.586311 -4.822348 12.304277 2.409659 -0.759600 5.566000 -15.530300 0.834889 6.526409 -3.187612 -2.195879 2.648271 -11.833557 8.461667 -21.611933 8.916782 20.709100 -12.169600 4.260100 -80.110086 17.807337 22.227304 24.941567 -31.765541 -9.482646 0.197235 -0.695120 -41.443245 -7.125000 0.000000 0.000000 62.875482 -0.602297 14.178370 -10.666020 20.829669 -3.326654 0.163132 0.687360 22.701729 7.125000 0.000000 0.000000 
-9.209811 18.194437 -11.338285 -11.220536 23.850390 3.049064 -9.203610 4.565985 -36.202868 -0.478431 10.981843 25.428373 -2.148614 10.631657 11.780774 0.732300 -5.467200 -15.246000 27.930096 -4.205649 -5.797851 1.679244 -8.073061 18.948949 -4.781767 12.155166 2.493770 -0.798100 5.702100 -15.922600 0.831033 6.583433 -3.189268 -2.187169 2.686875 -11.807423 8.452122 -21.611873 8.940508 20.689200 -12.175100 4.282800 -80.196125 17.768344 22.317911 24.837260 -31.666654 -9.408979 0.198338 -0.693374 -41.376699 -7.125000 0.000000 0.000000 62.990392 -0.393184 14.291624 -10.758378 20.908019 -3.355174 0.152636 0.683277 22.702842 7.125000 0.000000 0.000000 
-9.159463 18.192445 -11.225747 -11.277367 23.843634 3.083572 -8.993578 4.729585 -36.255897 -0.685857 10.551750 24.164031 -2.456023 11.457828 11.797893 0.694300 -5.326700 -14.842900 27.997570 -4.252351 -5.099874 1.749924 -7.807701 18.292692 -4.747463 12.041087 2.611892 -0.840000 5.846200 -16.338900 0.819009 6.663093 -3.195019 -2.206545 2.730777 -11.794226 8.441237 -21.609329 8.965269 20.668200 -12.181500 4.295500 -80.229235 17.762646 22.461653 24.706438 -31.547067 -9.319490 0.195778 -0.692373 -41.315205 -7.125000 0.000000 0.000000 63.163785 -0.236492 14.353583 -10.857087 20.996534 -3.387549 0.141179 0.677376 22.707489 7.125000 0.000000 0.000000 
-9.107343 18.190232 -11.112767 -11.338089 23.822215 3.129926 -8.782482 4.884277 -36.313581 -0.861174 10.154121 23.001192 -2.785550 12.303562 11.746155 0.659100 -5.192400 -14.458000 28.061219 -4.288784 -4.397108 1.820900 -7.532380 17.614258 -4.717227 11.952971 2.767214 -0.892100 6.020200 -16.842900 0.803397 6.752968 -3.204382 -2.242465 2.775677 -11.788441 8.425213 -21.607777 8.993076 20.638400 -12.189300 4.309000 -80.228615 17.763612 22.615979 24.537187 -31.393163 -9.206885 0.192123 -0.690932 -41.226589 -7.125000 0.000000 0.000000 63.376454 -0.108528 14.381295 -10.961717 21.092557 -3.422932 0.129712 0.670991 22.715526 7.125000 0.000000 0.000000 
-9.053565 18.187908 -10.998902 -11.407930 23.793524 3.186591 -8.565088 5.022235 -36.372483 -1.008763 9.789007 21.939083 -3.120019 13.130557 11.641889 0.628900 -5.074500 -14.121100 28.127475 -4.320295 -3.691809 1.891703 -7.247718 16.915196 -4.690590 11.889686 2.958008 -0.952700 6.215700 -17.411600 0.787419 6.843621 -3.217431 -2.282440 2.818837 -11.787176 8.404886 -21.600093 9.025930 20.604300 -12.195700 4.326200 -80.210428 17.771355 22.754554 24.327290 -31.202327 -9.070388 0.189093 -0.688371 -41.094486 -7.125000 0.000000 0.000000 63.620468 -0.010446 14.389806 -11.074210 21.198671 -3.462196 0.117772 0.665354 22.719283 7.125000 0.000000 0.000000 
-8.997904 18.185584 -10.883709 -11.461713 23.758455 3.262096 -8.362663 5.145747 -36.433084 -1.134314 9.458116 20.978896 -3.445966 13.909650 11.491253 0.605800 -4.982200 -13.857800 28.170949 -4.356578 -2.986113 1.960702 -6.953940 16.199973 -4.669830 11.857490 3.184203 -1.022400 6.432400 -18.044300 0.769840 6.934738 -3.231861 -2.318565 2.863189 -11.780408 8.379647 -21.589848 9.063944 20.563300 -12.201500 4.346200 -80.174939 17.780349 22.887824 24.081639 -30.978946 -8.913359 0.184862 -0.684692 -40.944747 -7.125000 0.000000 0.000000 63.892678 0.060260 14.367479 -11.192653 21.312798 -3.504848 0.104305 0.659809 22.723951 7.125000 0.000000 0.000000 
